<?xml version="1.0" standalone="no"?>
<!DOCTYPE svg PUBLIC "-//W3C//DTD SVG 20010904//EN"
 "http://www.w3.org/TR/2001/REC-SVG-20010904/DTD/svg10.dtd">
<svg version="1.0" xmlns="http://www.w3.org/2000/svg"
 width="1600.000000pt" height="1200.000000pt" viewBox="0 0 1600.000000 1200.000000"
 preserveAspectRatio="xMidYMid meet">
<metadata>
Created by potrace 1.16, written by Peter Selinger 2001-2019
</metadata>
<g transform="translate(0.000000,1200.000000) scale(0.100000,-0.100000)"
fill="#000000" stroke="none">
<path d="M6235 11109 c-735 -26 -1082 -76 -1475 -211 -417 -144 -723 -333
-1024 -634 -351 -351 -573 -748 -707 -1264 -130 -499 -149 -888 -149 -3000 0
-2112 19 -2501 149 -3000 134 -516 356 -913 707 -1264 351 -351 748 -573 1264
-707 500 -130 887 -149 3000 -149 2113 0 2500 19 3000 149 516 134 913 356
1264 707 351 351 573 748 707 1264 130 499 149 888 149 3000 0 2112 -19 2501
-149 3000 -134 516 -356 913 -707 1264 -301 301 -607 490 -1024 634 -403 139
-729 184 -1520 212 -329 12 -3155 11 -3485 -1z m3220 -919 c682 -17 968 -39
1225 -96 252 -56 511 -163 692 -286 132 -89 354 -313 441 -443 125 -190 225
-433 281 -685 84 -378 106 -933 106 -2680 0 -1747 -22 -2302 -106 -2680 -56
-252 -156 -495 -281 -685 -87 -130 -309 -354 -441 -443 -181 -123 -440 -230
-692 -286 -379 -84 -927 -106 -2680 -106 -1753 0 -2301 22 -2680 106 -252 56
-511 163 -692 286 -132 89 -354 313 -441 443 -125 190 -225 433 -281 685 -84
378 -106 933 -106 2680 0 2032 27 2478 171 2915 95 286 215 483 423 690 162
162 267 238 449 325 379 183 724 237 1647 259 463 11 2523 12 2965 1z"/>
<path d="M10630 9339 c-175 -27 -351 -147 -438 -300 -101 -179 -107 -402 -16
-589 51 -104 170 -223 274 -274 187 -91 409 -85 590 17 128 72 248 231 286
378 21 77 23 224 5 299 -41 175 -165 331 -322 407 -46 22 -104 46 -129 51 -72
17 -180 21 -250 11z"/>
<path d="M7690 8614 c-811 -98 -1522 -556 -1944 -1253 -502 -828 -502 -1894 0
-2722 183 -303 429 -571 714 -775 916 -660 2164 -660 3080 0 993 715 1360
2027 884 3163 -331 791 -1055 1384 -1894 1552 -254 51 -592 65 -840 35z m450
-915 c480 -43 912 -278 1204 -653 440 -564 481 -1327 105 -1944 -232 -380
-638 -668 -1079 -766 -251 -55 -489 -55 -740 0 -641 142 -1152 653 -1294 1294
-85 387 -37 779 140 1133 229 456 657 790 1154 901 187 41 333 52 510 35z"/>
</g>
</svg>
